<?xml version="1.0" encoding="UTF-8"?>
<svg xmlns="http://www.w3.org/2000/svg" xmlns:xlink="http://www.w3.org/1999/xlink" width="100%" height="100%" viewBox="0 0 24 24" version="1.1">
<g id="surface1">
<path style=" stroke:none;fill-rule:nonzero;fill:rgb(100%,0%,0%);fill-opacity:1;" d="M 7.167969 5.738281 L 7.132812 5.628906 C 7.046875 5.378906 6.769531 5.117188 6.511719 5.046875 L 5.566406 4.789062 C 5.3125 4.71875 4.945312 4.8125 4.757812 5 L 4.414062 5.339844 C 3.171875 5.003906 2.195312 4.03125 1.859375 2.785156 L 2.203125 2.445312 C 2.390625 2.257812 2.484375 1.890625 2.414062 1.632812 L 2.15625 0.6875 C 2.085938 0.429688 1.820312 0.152344 1.570312 0.0703125 L 1.460938 0.03125 C 1.210938 -0.0507812 0.851562 0.0351562 0.664062 0.222656 L 0.148438 0.734375 C 0.0585938 0.824219 0 1.085938 0 1.085938 C -0.015625 2.710938 0.621094 4.277344 1.769531 5.429688 C 2.917969 6.578125 4.476562 7.210938 6.097656 7.199219 C 6.109375 7.199219 6.375 7.140625 6.46875 7.050781 L 6.980469 6.539062 C 7.167969 6.351562 7.25 5.992188 7.167969 5.738281 Z M 7.167969 5.738281 "/>
</g>
</svg>
