<?xml version="1.0" encoding="UTF-8"?>
<svg xmlns="http://www.w3.org/2000/svg" xmlns:xlink="http://www.w3.org/1999/xlink" viewBox="0 0 24 24" version="1.1">
<g fill="#ff0000">
<path d="M 17.0625 0.269531 C 16.96875 0.414062 16.824219 0.621094 16.746094 0.734375 C 16.667969 0.847656 16.484375 1.113281 16.347656 1.332031 C 16.207031 1.546875 16.027344 1.800781 15.941406 1.898438 C 15.863281 1.996094 15.769531 2.128906 15.742188 2.195312 C 15.710938 2.257812 15.605469 2.378906 15.5 2.457031 C 15.398438 2.535156 15.171875 2.757812 14.996094 2.949219 C 14.578125 3.414062 14.238281 3.699219 13.964844 3.824219 C 13.839844 3.878906 13.460938 3.992188 13.113281 4.074219 C 12.359375 4.257812 11.675781 4.523438 11.28125 4.789062 C 11.222656 4.828125 11.066406 4.894531 10.941406 4.933594 C 10.585938 5.042969 10.441406 5.109375 10.078125 5.328125 C 9.527344 5.660156 9.414062 5.75 9 6.1875 C 8.78125 6.421875 8.5625 6.640625 8.507812 6.683594 C 8.457031 6.726562 8.328125 6.933594 8.226562 7.140625 L 8.035156 7.519531 L 7.671875 7.542969 C 7.34375 7.558594 7.253906 7.582031 6.878906 7.753906 C 6.648438 7.863281 6.429688 7.96875 6.394531 7.996094 C 6.363281 8.023438 6.257812 8.070312 6.164062 8.097656 C 6.070312 8.128906 5.875 8.222656 5.722656 8.3125 C 5.125 8.65625 4.605469 8.796875 4.148438 8.734375 C 3.945312 8.707031 3.5625 8.777344 3.429688 8.863281 C 3.382812 8.898438 3.304688 8.921875 3.25 8.921875 C 3.070312 8.921875 2.984375 8.996094 3.011719 9.117188 C 3.074219 9.367188 3.371094 9.914062 3.542969 10.097656 C 3.765625 10.335938 3.914062 10.609375 4.019531 10.976562 C 4.101562 11.28125 4.15625 11.316406 4.375 11.195312 C 4.550781 11.09375 4.648438 11.121094 4.835938 11.316406 C 4.925781 11.414062 5.007812 11.519531 5.007812 11.550781 C 5.007812 11.671875 5.898438 12.324219 6.226562 12.4375 C 6.667969 12.59375 6.703125 12.574219 6.425781 12.308594 C 5.984375 11.886719 5.734375 11.460938 5.730469 11.117188 L 5.730469 10.875 L 5.804688 11 C 5.875 11.109375 6.21875 11.378906 6.285156 11.378906 C 6.296875 11.378906 6.3125 11.253906 6.3125 11.109375 C 6.3125 10.839844 6.363281 10.683594 6.441406 10.683594 C 6.46875 10.683594 6.554688 10.734375 6.640625 10.800781 C 6.722656 10.863281 6.828125 10.925781 6.871094 10.941406 C 6.9375 10.964844 6.9375 10.957031 6.878906 10.847656 C 6.800781 10.699219 6.800781 10.40625 6.875 10.273438 C 6.910156 10.214844 7.019531 10.121094 7.121094 10.0625 C 7.25 9.992188 7.304688 9.929688 7.320312 9.84375 C 7.355469 9.664062 7.488281 9.617188 7.996094 9.617188 C 8.238281 9.617188 8.5 9.601562 8.574219 9.582031 C 8.679688 9.546875 8.710938 9.550781 8.710938 9.601562 C 8.710938 9.667969 8.707031 9.664062 9.109375 9.667969 C 9.273438 9.671875 9.4375 9.660156 9.480469 9.636719 C 9.535156 9.617188 9.546875 9.621094 9.527344 9.675781 C 9.496094 9.753906 9.746094 9.871094 9.960938 9.875 C 10.074219 9.878906 10.125 9.851562 10.230469 9.726562 C 10.355469 9.578125 10.667969 9.371094 10.765625 9.371094 C 10.875 9.371094 10.636719 9.613281 10.457031 9.683594 C 10.246094 9.769531 10.203125 9.84375 10.242188 10.050781 C 10.273438 10.21875 10.496094 10.398438 10.722656 10.433594 C 10.824219 10.449219 10.890625 10.488281 10.925781 10.558594 C 10.953125 10.613281 11.019531 10.691406 11.074219 10.726562 L 11.167969 10.796875 L 11.074219 11.078125 C 11.023438 11.230469 10.980469 11.398438 10.980469 11.449219 C 10.980469 11.496094 10.960938 11.585938 10.933594 11.652344 C 10.910156 11.71875 10.886719 12.191406 10.875 12.78125 C 10.863281 13.628906 10.851562 13.8125 10.792969 13.898438 C 10.683594 14.0625 10.078125 14.609375 10.003906 14.609375 C 9.980469 14.609375 9.859375 14.644531 9.734375 14.679688 C 9.511719 14.746094 9.222656 14.730469 8.988281 14.632812 C 8.921875 14.601562 8.925781 14.625 9.019531 14.792969 C 9.078125 14.898438 9.128906 14.992188 9.128906 15.003906 C 9.128906 15.039062 8.746094 14.972656 8.511719 14.898438 C 8.390625 14.855469 8.289062 14.832031 8.289062 14.84375 C 8.289062 14.863281 8.484375 15.148438 8.578125 15.265625 L 8.664062 15.367188 L 8.527344 15.390625 C 8.4375 15.40625 8.265625 15.367188 8 15.277344 C 7.78125 15.203125 7.589844 15.15625 7.578125 15.164062 C 7.539062 15.203125 8.011719 15.636719 8.183594 15.722656 C 8.402344 15.835938 8.398438 15.828125 8.285156 15.917969 C 8.230469 15.960938 8.191406 16.003906 8.203125 16.011719 C 8.539062 16.257812 8.921875 16.464844 9.019531 16.457031 C 9.175781 16.449219 10.097656 16.171875 10.175781 16.113281 C 10.207031 16.089844 10.324219 15.890625 10.433594 15.675781 C 10.585938 15.378906 10.695312 15.230469 10.863281 15.078125 C 11.144531 14.828125 11.71875 14.484375 12.121094 14.320312 C 12.535156 14.15625 12.621094 14.09375 12.621094 13.976562 C 12.621094 13.847656 12.664062 13.828125 12.894531 13.871094 C 13.132812 13.914062 13.378906 13.859375 13.378906 13.765625 C 13.378906 13.714844 13.40625 13.707031 13.496094 13.730469 C 13.683594 13.78125 14.5625 13.761719 14.621094 13.703125 C 14.671875 13.652344 14.554688 13.0625 14.429688 12.742188 C 14.234375 12.25 14.144531 12.109375 13.867188 11.878906 C 13.726562 11.757812 13.519531 11.578125 13.402344 11.476562 L 13.191406 11.292969 L 13.378906 11.316406 C 13.484375 11.332031 13.605469 11.382812 13.652344 11.421875 C 13.703125 11.464844 13.855469 11.554688 13.988281 11.625 C 14.128906 11.6875 14.339844 11.832031 14.457031 11.941406 C 14.671875 12.136719 14.671875 12.144531 14.65625 12.339844 C 14.640625 12.496094 14.667969 12.625 14.769531 12.890625 C 14.984375 13.46875 15.039062 13.703125 14.984375 13.816406 C 14.929688 13.9375 14.925781 14.039062 14.976562 14.113281 C 15 14.152344 15.039062 14.136719 15.140625 14.042969 C 15.214844 13.976562 15.273438 13.90625 15.273438 13.886719 C 15.273438 13.835938 15.488281 13.539062 15.507812 13.558594 C 15.523438 13.566406 15.5 13.628906 15.46875 13.695312 C 15.433594 13.761719 15.332031 13.960938 15.242188 14.140625 C 15.15625 14.320312 15.070312 14.476562 15.054688 14.488281 C 15.039062 14.5 15.03125 14.640625 15.035156 14.796875 C 15.039062 14.953125 15.015625 15.207031 14.988281 15.367188 C 14.953125 15.523438 14.914062 15.78125 14.902344 15.941406 C 14.882812 16.125 14.832031 16.300781 14.761719 16.433594 C 14.703125 16.542969 14.636719 16.691406 14.625 16.75 C 14.609375 16.8125 14.554688 16.882812 14.5 16.90625 C 14.445312 16.933594 14.359375 17.023438 14.3125 17.105469 C 14.265625 17.183594 14.1875 17.292969 14.136719 17.332031 C 14.023438 17.429688 13.867188 17.675781 13.902344 17.710938 C 13.945312 17.753906 14.273438 17.65625 15.101562 17.359375 C 15.207031 17.320312 15.304688 17.25 15.328125 17.199219 C 15.347656 17.148438 15.390625 17.109375 15.417969 17.109375 C 15.441406 17.109375 15.621094 17.03125 15.820312 16.933594 C 16.148438 16.773438 16.183594 16.746094 16.222656 16.601562 C 16.269531 16.425781 16.34375 16.378906 16.578125 16.371094 C 16.691406 16.367188 16.78125 16.316406 16.972656 16.152344 C 17.367188 15.816406 17.554688 15.628906 17.75 15.367188 L 17.941406 15.121094 L 17.976562 15.257812 C 18.007812 15.371094 17.996094 15.414062 17.890625 15.542969 C 17.828125 15.625 17.742188 15.746094 17.707031 15.800781 C 17.65625 15.878906 17.601562 15.910156 17.503906 15.910156 C 17.304688 15.910156 17.164062 16.039062 16.96875 16.410156 C 16.8125 16.707031 16.761719 16.769531 16.558594 16.890625 C 16.429688 16.96875 16.324219 17.046875 16.324219 17.0625 C 16.324219 17.082031 16.191406 17.15625 16.03125 17.234375 C 15.824219 17.332031 15.742188 17.394531 15.753906 17.433594 C 15.765625 17.46875 15.824219 17.617188 15.886719 17.761719 C 15.949219 17.910156 16.011719 18.105469 16.023438 18.203125 C 16.03125 18.296875 16.058594 18.390625 16.078125 18.402344 C 16.140625 18.4375 16.121094 18.535156 16.03125 18.621094 C 15.984375 18.667969 15.945312 18.742188 15.945312 18.789062 C 15.945312 18.894531 15.878906 19.019531 15.730469 19.1875 C 15.664062 19.261719 15.609375 19.347656 15.609375 19.378906 C 15.609375 19.410156 15.554688 19.464844 15.484375 19.503906 C 15.417969 19.539062 15.359375 19.589844 15.359375 19.617188 C 15.359375 19.738281 14.996094 19.976562 14.636719 20.089844 C 14.554688 20.117188 14.449219 20.175781 14.410156 20.21875 C 14.367188 20.261719 14.3125 20.300781 14.289062 20.300781 C 14.265625 20.300781 14.039062 20.402344 13.800781 20.523438 C 13.5625 20.648438 13.34375 20.75 13.316406 20.75 C 13.296875 20.75 13.175781 20.796875 13.046875 20.851562 C 12.925781 20.910156 12.6875 20.976562 12.523438 21.003906 C 12.089844 21.070312 12.058594 21.097656 12.304688 21.199219 C 12.703125 21.375 13.320312 21.453125 14.285156 21.457031 L 15.167969 21.457031 L 15.503906 21.304688 C 15.691406 21.222656 15.921875 21.113281 16.019531 21.074219 C 16.113281 21.03125 16.277344 20.925781 16.378906 20.832031 C 16.480469 20.742188 16.585938 20.667969 16.605469 20.667969 C 16.628906 20.667969 16.785156 20.519531 16.953125 20.34375 C 17.117188 20.164062 17.320312 19.980469 17.398438 19.933594 C 17.476562 19.882812 17.582031 19.78125 17.628906 19.703125 C 17.679688 19.628906 17.746094 19.5625 17.78125 19.5625 C 17.816406 19.5625 17.839844 19.523438 17.839844 19.464844 C 17.839844 19.390625 17.90625 19.304688 18.070312 19.171875 C 18.199219 19.0625 18.328125 18.914062 18.363281 18.828125 C 18.394531 18.746094 18.453125 18.65625 18.492188 18.621094 C 18.582031 18.546875 18.851562 18.15625 18.851562 18.097656 C 18.851562 18.050781 19.066406 17.925781 19.148438 17.925781 C 19.175781 17.925781 19.269531 17.859375 19.359375 17.78125 C 19.550781 17.617188 19.863281 17.457031 20.085938 17.417969 C 20.238281 17.390625 20.265625 17.402344 20.410156 17.542969 C 20.5625 17.683594 20.574219 17.714844 20.574219 17.925781 C 20.574219 18.246094 20.394531 18.992188 20.214844 19.398438 C 20.132812 19.59375 20.042969 19.800781 20.019531 19.863281 C 19.996094 19.925781 19.910156 20.082031 19.835938 20.210938 C 19.742188 20.359375 19.691406 20.492188 19.691406 20.585938 C 19.691406 20.71875 19.671875 20.746094 19.523438 20.828125 C 19.339844 20.929688 19.175781 21.160156 19.289062 21.160156 C 19.355469 21.160156 19.753906 20.847656 20.007812 20.601562 C 20.085938 20.53125 20.160156 20.464844 20.171875 20.464844 C 20.199219 20.464844 20.738281 19.941406 20.90625 19.746094 C 21.1875 19.429688 21.417969 19.152344 21.417969 19.128906 C 21.417969 19.117188 21.472656 19.0625 21.539062 19.011719 C 21.601562 18.953125 21.699219 18.820312 21.75 18.703125 C 21.800781 18.589844 21.867188 18.488281 21.894531 18.476562 C 21.992188 18.4375 22.511719 17.546875 22.511719 17.414062 C 22.511719 17.378906 22.546875 17.261719 22.589844 17.15625 C 22.636719 17.050781 22.683594 16.914062 22.695312 16.859375 C 22.707031 16.796875 22.753906 16.738281 22.800781 16.726562 C 22.890625 16.707031 22.972656 16.480469 22.972656 16.273438 C 22.972656 16.207031 23.019531 16.09375 23.078125 16.019531 C 23.238281 15.816406 23.328125 15.199219 23.230469 14.960938 C 23.183594 14.847656 23.21875 14.777344 23.304688 14.804688 C 23.34375 14.8125 23.410156 14.78125 23.449219 14.742188 C 23.511719 14.671875 23.523438 14.5625 23.53125 13.980469 C 23.542969 13.605469 23.53125 13.289062 23.515625 13.277344 C 23.5 13.269531 23.503906 13.195312 23.519531 13.113281 C 23.546875 13.007812 23.53125 12.90625 23.472656 12.742188 C 23.433594 12.617188 23.40625 12.496094 23.417969 12.476562 C 23.464844 12.40625 23.21875 12.199219 23.011719 12.136719 C 22.820312 12.074219 22.730469 12.007812 22.769531 11.972656 C 22.78125 11.964844 22.917969 11.980469 23.078125 12.011719 C 23.242188 12.046875 23.390625 12.074219 23.410156 12.074219 C 23.546875 12.074219 23.148438 10.945312 22.96875 10.804688 C 22.953125 10.792969 22.917969 10.710938 22.894531 10.617188 C 22.867188 10.527344 22.804688 10.417969 22.757812 10.371094 C 22.707031 10.332031 22.636719 10.226562 22.597656 10.148438 C 22.492188 9.925781 22.246094 9.625 22.125 9.578125 C 22.066406 9.546875 21.992188 9.480469 21.96875 9.421875 C 21.941406 9.359375 21.785156 9.226562 21.625 9.113281 C 21.460938 9.007812 21.332031 8.902344 21.332031 8.882812 C 21.332031 8.859375 21.390625 8.8125 21.457031 8.769531 C 21.53125 8.734375 21.585938 8.683594 21.585938 8.667969 C 21.585938 8.585938 21.761719 8.472656 21.890625 8.472656 C 22.15625 8.476562 22.703125 8.800781 22.855469 9.046875 C 22.90625 9.121094 23.070312 9.308594 23.226562 9.453125 C 23.378906 9.601562 23.5625 9.828125 23.636719 9.949219 C 23.714844 10.078125 23.800781 10.207031 23.839844 10.234375 C 23.878906 10.265625 23.925781 10.324219 23.941406 10.375 C 23.96875 10.4375 23.980469 10.421875 23.980469 10.289062 C 23.984375 10.089844 23.765625 9.242188 23.671875 9.105469 C 23.636719 9.054688 23.582031 8.921875 23.558594 8.8125 C 23.496094 8.566406 23.226562 8.019531 23.152344 7.992188 C 23.125 7.980469 23.097656 7.9375 23.097656 7.890625 C 23.097656 7.769531 22.832031 7.324219 22.660156 7.167969 C 22.5625 7.074219 22.511719 6.988281 22.511719 6.914062 C 22.511719 6.773438 22.300781 6.507812 21.835938 6.066406 C 21.441406 5.6875 21.0625 5.445312 20.878906 5.445312 C 20.777344 5.445312 20.738281 5.414062 20.6875 5.308594 C 20.652344 5.238281 20.558594 5.140625 20.484375 5.097656 C 20.40625 5.054688 20.308594 4.976562 20.269531 4.921875 C 20.226562 4.875 20.117188 4.8125 20.023438 4.789062 C 19.933594 4.765625 19.78125 4.667969 19.683594 4.578125 C 19.582031 4.492188 19.402344 4.371094 19.277344 4.3125 C 19.15625 4.253906 19.046875 4.1875 19.035156 4.171875 C 19.023438 4.148438 18.941406 4.097656 18.859375 4.054688 C 18.773438 4.011719 18.65625 3.9375 18.601562 3.890625 C 18.542969 3.84375 18.457031 3.792969 18.40625 3.78125 C 18.316406 3.761719 18.175781 3.535156 18.175781 3.40625 C 18.175781 3.367188 18.230469 3.222656 18.304688 3.078125 C 18.425781 2.824219 18.425781 2.816406 18.359375 2.667969 C 18.320312 2.585938 18.292969 2.492188 18.296875 2.464844 C 18.3125 2.386719 18.179688 1.886719 18.113281 1.761719 C 17.988281 1.519531 17.882812 1.261719 17.882812 1.203125 C 17.882812 1.144531 17.734375 0.902344 17.503906 0.574219 C 17.464844 0.515625 17.398438 0.371094 17.359375 0.257812 C 17.320312 0.140625 17.273438 0.03125 17.257812 0.0234375 C 17.242188 0.015625 17.152344 0.125 17.0625 0.269531 Z M 10.015625 6.761719 C 10.011719 6.824219 9.855469 7.089844 9.621094 7.425781 L 9.460938 7.652344 L 9.089844 7.652344 C 8.878906 7.652344 8.710938 7.640625 8.710938 7.628906 C 8.710938 7.613281 8.816406 7.484375 8.941406 7.347656 C 9.140625 7.128906 9.222656 7.066406 9.5 6.957031 C 9.675781 6.882812 9.855469 6.800781 9.886719 6.769531 C 9.964844 6.699219 10.015625 6.695312 10.015625 6.761719 Z M 10.015625 6.761719 "/>
<path d="M 9.644531 1.359375 C 9.582031 1.421875 9.023438 1.539062 8.375 1.636719 C 7.582031 1.75 7.417969 1.792969 7.328125 1.902344 C 7.285156 1.957031 7.195312 2.011719 7.128906 2.03125 C 7.058594 2.046875 6.804688 2.132812 6.558594 2.21875 C 6.222656 2.335938 6.050781 2.429688 5.878906 2.574219 C 5.746094 2.679688 5.378906 2.917969 5.054688 3.105469 C 4.734375 3.292969 4.410156 3.511719 4.332031 3.589844 C 4.148438 3.777344 3.777344 4.015625 3.441406 4.167969 C 3.1875 4.277344 3.144531 4.316406 2.976562 4.570312 C 2.875 4.722656 2.636719 5.011719 2.453125 5.21875 C 2.09375 5.617188 1.789062 6.058594 1.535156 6.546875 C 1.449219 6.714844 1.269531 7.011719 1.136719 7.203125 C 0.839844 7.632812 0.757812 7.785156 0.757812 7.90625 C 0.757812 7.960938 0.636719 8.351562 0.488281 8.777344 C 0.277344 9.378906 0.203125 9.671875 0.148438 10.066406 C 0.105469 10.351562 0.0585938 10.597656 0.0390625 10.617188 C -0.0117188 10.667969 -0.0117188 13.945312 0.0390625 13.972656 C 0.0546875 13.984375 0.0859375 14.070312 0.101562 14.160156 C 0.164062 14.550781 0.621094 16.007812 0.90625 16.71875 C 1.121094 17.257812 1.242188 17.472656 1.570312 17.90625 C 1.703125 18.085938 1.855469 18.304688 1.898438 18.382812 C 1.941406 18.464844 2.191406 18.753906 2.453125 19.019531 C 2.714844 19.285156 3.054688 19.652344 3.210938 19.832031 C 3.554688 20.242188 4.023438 20.652344 4.214844 20.71875 C 4.363281 20.765625 4.558594 20.902344 4.910156 21.199219 C 5.152344 21.40625 5.347656 21.511719 6.058594 21.816406 C 6.773438 22.125 6.980469 22.226562 7.210938 22.394531 C 7.34375 22.492188 7.472656 22.550781 7.542969 22.550781 C 7.613281 22.550781 7.875 22.613281 8.136719 22.691406 C 8.742188 22.875 9.390625 22.988281 9.222656 22.882812 C 9.164062 22.847656 9.855469 22.859375 10.359375 22.898438 C 10.566406 22.914062 10.792969 22.90625 10.980469 22.875 C 11.222656 22.832031 11.324219 22.832031 11.488281 22.875 C 11.648438 22.914062 11.78125 22.914062 12.105469 22.878906 C 12.617188 22.820312 12.675781 22.796875 12.808594 22.601562 C 12.890625 22.46875 12.949219 22.429688 13.109375 22.390625 C 13.21875 22.363281 13.363281 22.304688 13.425781 22.261719 C 13.488281 22.21875 13.582031 22.183594 13.628906 22.183594 C 13.6875 22.183594 13.714844 22.160156 13.714844 22.109375 C 13.714844 22.007812 13.3125 21.878906 12.984375 21.875 C 12.839844 21.875 12.703125 21.859375 12.667969 21.839844 C 12.605469 21.796875 12.417969 21.773438 12.179688 21.765625 C 12.113281 21.765625 11.949219 21.796875 11.824219 21.839844 C 11.632812 21.894531 11.40625 21.914062 10.539062 21.925781 C 9.964844 21.933594 9.394531 21.941406 9.277344 21.945312 C 8.945312 21.953125 8.394531 21.867188 8.21875 21.78125 C 8.128906 21.738281 7.886719 21.65625 7.679688 21.597656 C 7.277344 21.492188 7.097656 21.414062 6.601562 21.121094 C 6.429688 21.023438 6.144531 20.855469 5.960938 20.753906 C 5.78125 20.652344 5.578125 20.511719 5.519531 20.453125 C 5.457031 20.390625 5.21875 20.246094 4.984375 20.136719 C 4.675781 19.988281 4.488281 19.867188 4.273438 19.667969 C 4.109375 19.523438 3.964844 19.398438 3.945312 19.398438 C 3.929688 19.398438 3.914062 19.363281 3.914062 19.320312 C 3.914062 19.273438 3.875 19.234375 3.8125 19.21875 C 3.757812 19.207031 3.582031 19.054688 3.417969 18.886719 C 3.253906 18.71875 3.105469 18.582031 3.085938 18.582031 C 3.039062 18.582031 2.859375 18.40625 2.859375 18.359375 C 2.859375 18.339844 2.816406 18.273438 2.757812 18.203125 C 2.695312 18.140625 2.652344 18.039062 2.652344 17.988281 C 2.652344 17.851562 2.609375 17.761719 2.542969 17.761719 C 2.488281 17.761719 2.234375 17.429688 2.078125 17.148438 C 2.027344 17.058594 1.925781 16.917969 1.855469 16.839844 C 1.785156 16.761719 1.726562 16.679688 1.726562 16.65625 C 1.726562 16.636719 1.617188 16.460938 1.480469 16.261719 C 1.3125 16.015625 1.214844 15.828125 1.183594 15.675781 C 1.15625 15.550781 1.085938 15.335938 1.027344 15.191406 C 0.96875 15.054688 0.886719 14.75 0.839844 14.515625 C 0.753906 14.046875 0.722656 13.957031 0.664062 13.957031 C 0.636719 13.957031 0.625 14.023438 0.644531 14.121094 C 0.671875 14.335938 0.632812 14.324219 0.515625 14.085938 C 0.402344 13.839844 0.335938 13.53125 0.386719 13.457031 C 0.402344 13.429688 0.414062 13.027344 0.398438 12.566406 C 0.386719 12.09375 0.390625 11.664062 0.417969 11.582031 C 0.449219 11.449219 0.453125 11.453125 0.457031 11.671875 C 0.460938 11.804688 0.480469 11.910156 0.5 11.910156 C 0.546875 11.910156 0.597656 11.730469 0.566406 11.652344 C 0.554688 11.625 0.582031 11.378906 0.632812 11.109375 C 0.722656 10.570312 0.757812 9.9375 0.695312 9.90625 C 0.671875 9.890625 0.585938 10.113281 0.5 10.394531 C 0.414062 10.679688 0.308594 11.019531 0.261719 11.152344 L 0.175781 11.398438 L 0.171875 11.230469 C 0.167969 11.140625 0.207031 10.957031 0.253906 10.820312 C 0.296875 10.691406 0.34375 10.546875 0.359375 10.507812 C 0.445312 10.144531 0.570312 9.761719 0.714844 9.445312 C 1.03125 8.75 1.050781 8.695312 1.109375 8.46875 C 1.269531 7.859375 1.976562 6.828125 2.851562 5.925781 C 3.15625 5.617188 3.488281 5.285156 3.59375 5.183594 C 3.699219 5.089844 3.785156 4.976562 3.785156 4.933594 C 3.785156 4.855469 3.882812 4.792969 4.109375 4.726562 C 4.160156 4.714844 4.25 4.652344 4.300781 4.59375 C 4.484375 4.386719 4.871094 4.09375 4.964844 4.09375 C 5.015625 4.09375 5.039062 4.078125 5.027344 4.046875 C 4.980469 3.980469 5.125 3.855469 5.449219 3.671875 C 5.609375 3.582031 5.832031 3.453125 5.9375 3.390625 C 6.042969 3.328125 6.175781 3.273438 6.230469 3.273438 C 6.359375 3.273438 6.667969 3.113281 7.023438 2.875 C 7.300781 2.683594 7.714844 2.496094 8.097656 2.386719 C 8.21875 2.351562 8.640625 2.3125 9.050781 2.292969 C 9.453125 2.273438 9.917969 2.226562 10.074219 2.195312 C 10.425781 2.113281 10.695312 2.113281 11.570312 2.191406 C 12.238281 2.25 12.648438 2.316406 13.113281 2.4375 C 13.378906 2.507812 13.660156 2.511719 13.683594 2.449219 C 13.695312 2.414062 13.761719 2.425781 13.898438 2.492188 L 14.097656 2.585938 L 14.332031 2.410156 C 14.730469 2.113281 14.777344 1.988281 14.507812 1.949219 C 14.234375 1.90625 14.054688 1.839844 14.054688 1.78125 C 14.054688 1.722656 13.921875 1.679688 13.734375 1.679688 C 13.660156 1.679688 13.507812 1.648438 13.382812 1.613281 C 13.265625 1.578125 13.09375 1.542969 13.011719 1.535156 C 12.820312 1.515625 11.992188 1.394531 11.761719 1.359375 C 11.667969 1.34375 11.203125 1.339844 10.730469 1.351562 C 10.253906 1.363281 9.824219 1.359375 9.777344 1.34375 C 9.726562 1.332031 9.667969 1.335938 9.644531 1.359375 Z M 9.644531 1.359375 "/>
<path d="M 19.628906 17.832031 C 19.515625 17.890625 19.347656 17.992188 19.253906 18.0625 C 19.042969 18.222656 18.601562 18.726562 18.488281 18.9375 C 18.253906 19.367188 17.285156 20.453125 16.855469 20.761719 C 16.738281 20.84375 16.597656 20.949219 16.546875 20.992188 C 16.496094 21.03125 16.367188 21.117188 16.253906 21.179688 C 16.144531 21.246094 15.996094 21.339844 15.925781 21.398438 C 15.734375 21.550781 15.535156 21.625 15.230469 21.652344 C 14.984375 21.667969 14.953125 21.683594 14.902344 21.785156 C 14.871094 21.851562 14.820312 21.914062 14.785156 21.925781 C 14.75 21.9375 14.726562 21.976562 14.726562 22.015625 C 14.726562 22.132812 14.472656 22.519531 14.410156 22.492188 C 14.375 22.480469 14.359375 22.492188 14.375 22.53125 C 14.394531 22.582031 14.203125 22.855469 13.898438 23.199219 C 13.835938 23.273438 13.648438 23.425781 13.484375 23.546875 C 13.109375 23.816406 12.976562 23.933594 13.011719 23.964844 C 13.023438 23.980469 13.203125 23.9375 13.40625 23.882812 C 14.339844 23.609375 14.738281 23.476562 15.175781 23.285156 C 15.4375 23.167969 15.667969 23.085938 15.695312 23.105469 C 15.714844 23.117188 15.734375 23.105469 15.734375 23.070312 C 15.734375 23.039062 15.835938 22.964844 15.960938 22.898438 C 16.078125 22.835938 16.253906 22.726562 16.347656 22.652344 C 16.4375 22.582031 16.675781 22.445312 16.867188 22.34375 C 17.277344 22.132812 17.761719 21.738281 17.933594 21.46875 C 17.996094 21.367188 18.066406 21.28125 18.09375 21.28125 C 18.113281 21.28125 18.226562 21.148438 18.339844 20.980469 C 18.457031 20.8125 18.636719 20.605469 18.742188 20.523438 C 18.878906 20.414062 18.957031 20.308594 19.039062 20.105469 C 19.101562 19.953125 19.238281 19.652344 19.339844 19.4375 C 19.4375 19.21875 19.523438 18.992188 19.523438 18.925781 C 19.523438 18.734375 19.878906 18.070312 20.097656 17.851562 C 20.257812 17.691406 19.929688 17.679688 19.628906 17.832031 Z M 19.628906 17.832031 "/>
</g>
</svg>
